<?xml version="1.0" encoding="utf-8"?>
<!-- Generator: Adobe Illustrator 16.0.4, SVG Export Plug-In . SVG Version: 6.00 Build 0)  -->
<!DOCTYPE svg PUBLIC "-//W3C//DTD SVG 1.1//EN" "http://www.w3.org/Graphics/SVG/1.1/DTD/svg11.dtd">
<svg version="1.1" id="Ebene_1" xmlns="http://www.w3.org/2000/svg" xmlns:xlink="http://www.w3.org/1999/xlink" x="0px" y="0px"
	 width="320px" height="72px" viewBox="0 0 320 72" enable-background="new 0 0 320 72" xml:space="preserve">
<g id="_x3C_Ebene_x3E_">
	<g>
		<g>
			<polygon fill="#E53527" points="32.637,33.888 41.709,33.888 41.709,47.887 32.637,47.887 			"/>
			<polygon fill="#7C8388" points="23.974,47.887 32.637,47.887 32.637,43.947 27.948,43.947 27.948,27.909 46.397,27.909 
				46.397,43.947 41.709,43.947 41.709,47.887 50.375,47.887 50.375,23.968 23.974,23.968 			"/>
		</g>
		<g>
			<path fill="#7C8388" d="M134.29,32.908c-2.662,0-4.528-1.544-4.528-4.375c0-2.629,1.816-4.684,4.835-4.684
				c0.881,0,1.729,0.121,2.595,0.393l-0.188,1.154c-0.813-0.307-1.629-0.493-2.459-0.493c-1.815,0-3.426,1.155-3.426,3.494
				c0,2.188,1.356,3.408,3.36,3.408c0.576,0,1.152-0.102,1.609-0.237v-3.273h1.289v4.09
				C136.427,32.721,135.425,32.908,134.29,32.908z"/>
			<path fill="#7C8388" d="M140.661,32.791v-8.819h4.802v1h-3.513v2.78h3.359v0.984h-3.359v3.021h3.513v1.034H140.661z"/>
			<path fill="#7C8388" d="M150.798,32.825c-0.559,0-1.457-0.018-2.391-0.034v-8.819c0.679,0,1.628-0.036,2.799-0.036
				c2.118,0,2.967,0.866,2.967,2.121c0,0.932-0.594,1.678-1.595,2.052v0.017c1.205,0.238,1.781,1.053,1.781,2.021
				C154.36,31.179,153.75,32.825,150.798,32.825z M150.934,24.903c-0.425,0-0.864,0-1.239,0.019v2.849
				c0.339,0.018,0.678,0.018,0.798,0.018c1.46,0,2.341-0.508,2.341-1.561C152.836,25.464,152.412,24.903,150.934,24.903z
				 M150.529,28.686c-0.17,0-0.595,0-0.833,0.018v3.07c0.256,0.051,0.629,0.083,1.171,0.083c1.493,0,2.156-0.695,2.156-1.661
				C153.023,29.025,151.953,28.686,150.529,28.686z"/>
			<path fill="#7C8388" d="M162.666,32.791l-0.747-1.969h-4.122l-0.764,1.969h-1.288l3.479-8.819h1.439l3.426,8.819H162.666z
				 M158.374,22.46c-0.457,0-0.815-0.356-0.815-0.814c0-0.442,0.356-0.798,0.815-0.798s0.814,0.356,0.814,0.798
				C159.188,22.104,158.833,22.46,158.374,22.46z M160.392,26.819c-0.202-0.524-0.389-1.085-0.524-1.508h-0.018
				c-0.119,0.44-0.289,0.983-0.508,1.508l-1.188,3.037h3.409L160.392,26.819z M161.561,22.46c-0.459,0-0.813-0.356-0.813-0.814
				c0-0.442,0.354-0.798,0.813-0.798c0.442,0,0.815,0.356,0.815,0.798C162.376,22.104,162.003,22.46,161.561,22.46z"/>
			<path fill="#7C8388" d="M169.542,32.925c-2.373,0-3.646-1.12-3.646-3.156V23.97h1.289v5.613c0,1.56,0.916,2.271,2.459,2.271
				c1.797,0,2.44-1.018,2.44-2.475V23.97h1.272v5.478C173.359,31.315,172.259,32.925,169.542,32.925z"/>
			<path fill="#7C8388" d="M179.154,32.825c-0.981,0-1.711-0.034-2.389-0.034v-8.819c0.729,0,1.881-0.036,2.83-0.036
				c2.936,0,4.75,1.289,4.75,4.344C184.346,31.383,182.141,32.825,179.154,32.825z M179.393,24.954c-0.406,0-0.916,0.018-1.342,0.05
				v6.719c0.305,0.015,0.866,0.05,1.254,0.05c2.174,0,3.682-1.069,3.682-3.409C182.986,26.108,181.784,24.954,179.393,24.954z"/>
			<path fill="#7C8388" d="M186.85,32.791v-8.819h4.801v1h-3.51v2.78h3.354v0.984h-3.354v3.021h3.51v1.034H186.85z"/>
			<path fill="#7C8388" d="M197.954,32.791h-1.44l-3.479-8.819h1.439l2,5.241c0.289,0.746,0.545,1.49,0.746,2.221h0.02
				c0.238-0.73,0.492-1.46,0.764-2.154l2.137-5.309h1.344L197.954,32.791z"/>
			<path fill="#7C8388" d="M203.289,32.791v-8.819h4.801v1h-3.51v2.78h3.357v0.984h-3.357v3.021h3.51v1.034H203.289z"/>
			<path fill="#7C8388" d="M215.479,32.791l-3.104-3.918h-0.052v3.918h-1.287v-8.819c0.526-0.019,1.374-0.036,2.407-0.036
				c2.021,0,3.138,0.798,3.138,2.273c0,1.56-1.203,2.46-2.831,2.543c0.236,0.238,0.508,0.578,0.795,0.933l2.562,3.104h-1.627v0.002
				H215.479z M213.273,24.919c-0.424,0-0.695,0.018-0.95,0.05v2.968c0.272,0.017,0.645,0.035,0.999,0.035
				c1.171,0,1.918-0.628,1.918-1.609C215.24,25.396,214.479,24.919,213.273,24.919z"/>
			<path fill="#7C8388" d="M221.005,32.925c-0.696,0-1.478-0.103-1.968-0.221l0.05-1.239c0.542,0.221,1.287,0.374,2.085,0.374
				c0.982,0,2.053-0.424,2.053-1.577c0-1.917-4.377-1.018-4.377-3.833c0-1.578,1.274-2.595,3.426-2.595
				c0.545,0,1.274,0.066,1.802,0.168l-0.07,1.139c-0.491-0.138-1.254-0.256-1.797-0.256c-1.374,0-2.019,0.56-2.019,1.392
				c0,1.899,4.41,1.001,4.41,3.849C224.6,31.874,222.971,32.925,221.005,32.925z"/>
			<path fill="#7C8388" d="M227.359,32.791v-8.819h1.291v8.819H227.359z"/>
			<path fill="#7C8388" d="M235.516,32.908c-2.781,0-4.257-1.627-4.257-4.341c0-2.545,1.39-4.7,4.612-4.7
				c0.661,0,1.408,0.086,2.033,0.255l-0.116,1.171c-0.712-0.221-1.409-0.339-2.086-0.339c-2.087,0-3.068,1.527-3.068,3.478
				c0,2.154,1.103,3.341,3.187,3.341c0.715,0,1.478-0.171,2.07-0.459l0.103,1.136C237.281,32.739,236.448,32.908,235.516,32.908z"/>
			<path fill="#7C8388" d="M246.552,32.791v-4.003h-4.749v4.003h-1.289v-8.819h1.289v3.714h4.749v-3.714h1.287v8.819H246.552z"/>
			<path fill="#7C8388" d="M251.329,32.791v-8.819h4.799v1h-3.512v2.78h3.358v0.984h-3.358v3.021h3.512v1.034H251.329z"/>
			<path fill="#7C8388" d="M263.52,32.791l-3.104-3.918h-0.051v3.918h-1.289v-8.819c0.527-0.019,1.373-0.036,2.408-0.036
				c2.021,0,3.138,0.798,3.138,2.273c0,1.56-1.202,2.46-2.832,2.543c0.237,0.238,0.508,0.578,0.799,0.933l2.562,3.104h-1.631V32.791
				z M261.312,24.919c-0.424,0-0.693,0.018-0.949,0.05v2.968c0.271,0.017,0.646,0.035,1,0.035c1.17,0,1.916-0.628,1.916-1.609
				C263.279,25.396,262.52,24.919,261.312,24.919z"/>
			<path fill="#7C8388" d="M271.215,32.925c-2.376,0-3.646-1.12-3.646-3.156V23.97h1.287v5.613c0,1.56,0.916,2.271,2.461,2.271
				c1.799,0,2.441-1.018,2.441-2.475V23.97h1.271v5.478C275.031,31.315,273.93,32.925,271.215,32.925z"/>
			<path fill="#7C8388" d="M284.25,32.791l-3.611-5.513c-0.392-0.576-0.748-1.222-1.021-1.781h-0.017
				c0.032,0.594,0.067,1.271,0.067,2.307l0.019,4.987h-1.256v-8.819h1.68l3.562,5.444c0.375,0.56,0.746,1.188,1.07,1.798h0.017
				c-0.033-0.609-0.066-1.644-0.066-3.103l-0.019-4.138h1.271v8.818H284.25L284.25,32.791z"/>
			<path fill="#7C8388" d="M292.997,32.908c-2.662,0-4.526-1.544-4.526-4.375c0-2.629,1.814-4.684,4.831-4.684
				c0.884,0,1.733,0.121,2.599,0.393l-0.188,1.154c-0.814-0.307-1.627-0.493-2.46-0.493c-1.815,0-3.426,1.155-3.426,3.494
				c0,2.188,1.354,3.408,3.358,3.408c0.576,0,1.153-0.102,1.607-0.237v-3.273h1.288v4.09
				C295.133,32.721,294.133,32.908,292.997,32.908z"/>
			<path fill="#7C8388" d="M135.799,47.887l-3.816-4.359v4.359h-1.289v-8.82h1.289v4.156l3.782-4.156h1.612l-3.971,4.259l4.14,4.562
				H135.799z"/>
			<path fill="#7C8388" d="M145.157,47.887l-0.746-1.969h-4.121l-0.764,1.969h-1.288l3.479-8.82h1.441l3.424,8.82H145.157z
				 M142.883,41.914c-0.203-0.523-0.39-1.082-0.523-1.507h-0.018c-0.118,0.44-0.288,0.981-0.509,1.507l-1.188,3.037h3.408
				L142.883,41.914z"/>
			<path fill="#7C8388" d="M154.549,47.887l-3.613-5.514c-0.391-0.577-0.747-1.223-1.017-1.781h-0.018
				c0.034,0.594,0.066,1.271,0.066,2.309l0.018,4.986h-1.256v-8.82h1.679l3.562,5.444c0.374,0.558,0.748,1.188,1.07,1.798h0.018
				c-0.034-0.607-0.069-1.645-0.069-3.102l-0.018-4.139h1.274v8.817L154.549,47.887L154.549,47.887z"/>
			<path fill="#7C8388" d="M162.123,40.136v7.751h-1.288v-7.751h-2.631v-1.069h6.58v1.069H162.123z"/>
			<path fill="#7C8388" d="M169.732,48.021c-2.848,0-4.121-1.883-4.121-4.459c0-2.936,2.016-4.631,4.393-4.631
				c2.594,0,4.155,1.594,4.155,4.477C174.162,46.361,172.209,48.021,169.732,48.021z M169.887,40.033c-1.545,0-2.9,1.186-2.9,3.393
				c0,1.881,0.729,3.477,2.83,3.477c1.682,0,2.971-1.153,2.971-3.359C172.787,41.255,171.682,40.033,169.887,40.033z"/>
			<path fill="#7C8388" d="M182.549,47.887l-3.611-5.514c-0.392-0.577-0.746-1.223-1.02-1.781h-0.016
				c0.033,0.594,0.065,1.271,0.065,2.309l0.019,4.986h-1.256v-8.82h1.681l3.562,5.444c0.375,0.558,0.745,1.188,1.069,1.798h0.015
				c-0.031-0.607-0.065-1.645-0.065-3.102l-0.017-4.139h1.271v8.817L182.549,47.887L182.549,47.887z"/>
			<path fill="#7C8388" d="M190.65,47.887v-0.951l4.051-5.699c0.271-0.389,0.494-0.713,0.765-1.068
				c-0.46,0.02-1.139,0.035-2.055,0.035h-2.627v-1.137h6.172v0.982l-4.224,5.939c-0.205,0.287-0.375,0.558-0.543,0.762
				c0.271-0.055,1.172-0.055,2.188-0.055h2.646v1.19L190.65,47.887L190.65,47.887z"/>
			<path fill="#7C8388" d="M203.331,48.021c-2.376,0-3.646-1.121-3.646-3.154v-5.801h1.289v5.611c0,1.562,0.916,2.272,2.461,2.272
				c1.797,0,2.439-1.019,2.439-2.476v-5.41h1.273v5.479C207.148,46.41,206.045,48.021,203.331,48.021z M201.753,37.598
				c-0.458,0-0.813-0.355-0.813-0.816c0-0.439,0.355-0.797,0.813-0.797s0.815,0.357,0.815,0.797
				C202.568,37.242,202.211,37.598,201.753,37.598z M204.941,37.598c-0.457,0-0.814-0.355-0.814-0.816
				c0-0.439,0.357-0.797,0.814-0.797c0.439,0,0.816,0.357,0.816,0.797C205.758,37.242,205.381,37.598,204.941,37.598z"/>
			<path fill="#7C8388" d="M214.993,47.887l-3.104-3.916h-0.051v3.916h-1.287v-8.82c0.525-0.018,1.374-0.035,2.407-0.035
				c2.019,0,3.14,0.801,3.14,2.273c0,1.562-1.205,2.461-2.832,2.541c0.237,0.24,0.508,0.578,0.795,0.937l2.562,3.103h-1.63V47.887
				L214.993,47.887z M212.787,40.018c-0.424,0-0.695,0.017-0.949,0.051v2.966c0.273,0.021,0.646,0.036,1,0.036
				c1.171,0,1.918-0.629,1.918-1.61C214.755,40.491,213.992,40.018,212.787,40.018z"/>
			<path fill="#7C8388" d="M219.111,47.887v-8.82h1.289v8.82H219.111z"/>
			<path fill="#7C8388" d="M227.266,48.007c-2.783,0-4.258-1.63-4.258-4.344c0-2.542,1.391-4.697,4.612-4.697
				c0.661,0,1.407,0.083,2.034,0.255l-0.119,1.17c-0.712-0.222-1.407-0.339-2.085-0.339c-2.087,0-3.068,1.523-3.068,3.478
				c0,2.154,1.101,3.341,3.188,3.341c0.711,0,1.474-0.173,2.068-0.46l0.103,1.137C229.029,47.833,228.199,48.007,227.266,48.007z"/>
			<path fill="#7C8388" d="M238.301,47.887v-4.004h-4.748v4.004h-1.289v-8.82h1.289v3.717h4.748v-3.717h1.288v8.82H238.301z"/>
		</g>
		<g>
			<path fill="#7C8388" d="M77.258,28.924c-1.917-0.744-4.116-1.205-6.349-1.205c-4.718,0-8.124,2.979-8.124,8.336
				c0,5.073,2.767,8.052,7.627,8.052c1.137,0,2.128-0.142,3.051-0.426v-8.336h4.612v11.422c-2.377,0.959-5.321,1.489-8.194,1.489
				c-7.591,0-12.098-4.468-12.098-11.775c0-7.521,5.109-12.877,13.41-12.877c2.377,0,4.718,0.424,6.775,1.028L77.258,28.924z"/>
			<path fill="#7C8388" d="M94.315,47.904h-5.32l-8.338-23.945h5.036l4.649,14.014c0.462,1.348,0.995,2.946,1.418,4.682h0.072
				c0.354-1.631,0.745-2.944,1.418-4.965l4.719-13.729h4.718L94.315,47.904z"/>
			<path fill="#7C8388" d="M104.457,47.904v-3.547l8.619-14.049c0.497-0.815,0.994-1.524,1.561-2.269
				c-0.852,0.036-1.986,0.07-4.362,0.07h-5.536v-4.151h15.468v3.688l-9.118,14.404c-0.354,0.568-0.674,1.101-1.098,1.668
				c0.602-0.069,2.233-0.069,5.178-0.069h5.179v4.254h-15.891V47.904z"/>
		</g>
	</g>
</g>
<g id="LEERRAUM">
	<rect x="150.206" y="0.018" fill="none" width="23.938" height="23.939"/>
	<rect x="150.206" y="47.887" fill="none" width="23.938" height="23.938"/>
	<rect x="296.098" y="23.958" fill="none" width="23.938" height="23.938"/>
	<rect x="0.036" y="23.968" fill="none" width="23.938" height="23.939"/>
</g>
</svg>
